# Blender v2.77 (sub 0) OBJ File: 'Adv_Shield_Controller2.blend'
# www.blender.org
o Laser_connector.001
v -1.500000 0.000000 -0.400000
v -1.500000 -0.282843 -0.282843
v -1.400000 -0.282843 -0.282843
v -1.400000 0.000000 -0.400000
v -1.400000 0.000000 0.399999
v -1.500000 -0.400000 -0.000000
v -1.400000 -0.400000 -0.000000
v -1.400000 -0.282843 0.282842
v -1.500000 0.000000 0.400000
v -1.500000 0.282843 -0.282843
v -1.400000 0.282843 -0.282843
v -1.400000 0.400000 0.000000
v -1.400000 0.282843 0.282842
v -1.500000 0.400000 0.000000
v -1.500000 0.000000 0.000000
v -1.500000 0.282843 0.282842
v -1.500000 -0.282843 0.282842
v 1.400000 0.000000 -0.400000
v 1.400000 -0.400000 -0.000000
v 1.400000 -0.282843 -0.282842
v 1.400000 0.000000 0.400000
v 1.500000 -0.282843 0.282843
v 1.400000 -0.282843 0.282843
v 1.500000 -0.400000 -0.000000
v 1.400000 0.282843 0.282843
v 1.500000 0.000000 0.400000
v 1.500001 0.000000 -0.400000
v 1.400000 0.282843 -0.282843
v 1.500000 0.282843 -0.282843
v 1.500000 0.282843 0.282843
v 1.500000 0.400000 0.000000
v 1.400000 0.400000 0.000000
v 1.500000 0.000000 0.000000
v 1.500001 -0.282843 -0.282842
v -0.282842 0.282843 -1.500000
v -0.282843 0.282843 -1.400000
v 0.000000 0.400000 -1.500000
v -0.400000 0.000000 -1.400000
v 0.000000 -0.400000 -1.400000
v -0.282843 -0.282843 -1.400000
v -0.282842 -0.282843 -1.500000
v 0.282843 -0.282843 -1.400000
v 0.000000 -0.400000 -1.500000
v 0.400000 0.000000 -1.400000
v 0.282843 -0.282843 -1.500000
v 0.282843 0.282843 -1.500000
v 0.282843 0.282843 -1.400000
v 0.400000 0.000000 -1.500000
v 0.000000 0.000000 -1.500000
v -0.400000 0.000000 -1.500000
v 0.000000 0.400000 -1.400000
v -0.400000 -1.400000 -0.000000
v 0.000000 -1.400000 -0.400000
v 0.400000 -1.400000 -0.000000
v 0.000000 -1.500000 -0.000000
v 0.282843 -1.500000 0.282843
v 0.000000 -1.500000 0.400000
v -0.282843 -1.500000 -0.282843
v 0.000000 -1.400000 0.400000
v -0.282843 -1.500000 0.282843
v -0.282843 -1.400000 0.282843
v -0.400000 -1.500000 -0.000000
v -0.282843 -1.400000 -0.282843
v 0.000000 -1.500000 -0.400000
v 0.282843 -1.400000 -0.282843
v 0.400000 -1.500000 -0.000000
v 0.282843 -1.400000 0.282843
v 0.282843 -1.500000 -0.282843
v -0.400000 1.400000 0.000000
v 0.000000 1.500000 0.000000
v 0.400000 1.500000 0.000000
v 0.000000 1.400000 0.400000
v 0.282842 1.500000 0.282843
v 0.282842 1.400000 0.282843
v 0.400000 1.400000 0.000000
v 0.282843 1.500000 -0.282843
v 0.282843 1.400000 -0.282843
v -0.282843 1.500000 0.282842
v -0.282843 1.400000 0.282842
v 0.000000 1.500000 0.400000
v 0.000000 1.500000 -0.400000
v 0.000000 1.400000 -0.400000
v -0.282843 1.400000 -0.282843
v -0.400000 1.500000 0.000000
v -0.282843 1.500000 -0.282843
v 0.000000 -0.400000 1.500000
v -0.400000 -0.000000 1.399999
v -0.282843 -0.282842 1.400000
v 0.000000 0.400000 1.500000
v 0.000000 -0.000000 1.500000
v 0.282842 0.282843 1.500000
v -0.400000 -0.000000 1.500000
v -0.282843 -0.282842 1.500000
v 0.282842 -0.282843 1.500000
v 0.282842 -0.282843 1.400000
v -0.282843 0.282843 1.500000
v -0.282843 0.282843 1.399999
v 0.400000 -0.000000 1.500000
v 0.000000 0.400000 1.400000
v 0.282842 0.282843 1.400000
v 0.400000 -0.000000 1.400000
v 0.000000 -0.400000 1.400000
v 0.141421 1.400000 0.341422
v 0.141421 0.341421 1.400000
v 1.262132 0.841422 0.424265
v 1.262132 -0.282843 -1.262131
v 0.900000 0.000000 -0.900000
v 1.262132 0.282843 -1.262132
v 0.900000 0.900000 0.000000
v 0.000000 0.900000 0.900000
v -0.424264 0.841421 1.262131
v 0.900000 0.000000 0.900000
v 1.262132 0.282843 1.262132
v -1.262132 0.841422 -0.424264
v -0.900000 0.900000 0.000000
v -1.262132 0.841422 0.424263
v -1.262132 -0.282842 1.262132
v -1.262132 0.282843 1.262131
v -0.900000 0.000000 0.899999
v -1.262132 0.282843 -1.262132
v -0.900000 0.000000 -0.900000
v -1.262132 -0.282843 -1.262132
v -0.424264 0.841422 -1.262132
v 0.000000 0.900000 -0.900000
v 0.424265 0.841422 -1.262132
v 0.424265 -0.841421 -1.262132
v 0.000000 -0.900000 -0.900000
v -0.424264 -0.841421 -1.262132
v -1.262132 -0.841421 -0.424265
v -0.900000 -0.900000 -0.000000
v -1.262132 -0.841421 0.424264
v 0.000000 -0.900000 0.900000
v -0.424264 -0.841421 1.262132
v 0.424264 -0.841421 1.262132
v 1.262132 -0.841421 0.424264
v 0.900000 -0.900000 -0.000000
v 1.262132 -0.841421 -0.424264
v 1.262132 0.841422 -0.424264
v 0.424263 0.841421 1.262133
v 1.262132 -0.282843 1.262132
vt 0.0747 0.4966
vt 0.0748 0.2511
vt 0.2256 0.3820
vt 0.2256 0.3820
vt 0.0747 0.4966
vt 0.0748 0.2511
vt 0.2256 0.3820
vt 0.0747 0.4966
vt 0.0748 0.2511
vt 0.2510 0.8130
vt 0.2510 0.8945
vt 0.5000 0.8945
vt 0.5000 0.8130
vt 0.2510 0.8945
vt 0.2510 0.8130
vt 0.5000 0.8945
vt 0.5000 0.8130
vt 0.2510 0.8945
vt 0.2510 0.8130
vt 0.5000 0.8130
vt 0.5000 0.8945
vt 0.5000 0.8945
vt 0.5000 0.8130
vt 0.2510 0.8130
vt 0.2510 0.8945
vt 0.1719 0.7368
vt 0.1255 0.6245
vt 0.2378 0.6709
vt 0.0791 0.7368
vt 0.0132 0.6709
vt 0.0132 0.5781
vt 0.0791 0.5122
vt 0.1719 0.5122
vt 0.2378 0.5781
vt 0.5000 0.8130
vt 0.5000 0.8945
vt 0.2510 0.8945
vt 0.2510 0.8130
vt 0.5000 0.8130
vt 0.5000 0.8945
vt 0.2510 0.8945
vt 0.2510 0.8130
vt 0.5000 0.8945
vt 0.5000 0.8130
vt 0.2510 0.8130
vt 0.2510 0.8945
vt 0.2510 0.8945
vt 0.2510 0.8130
vt 0.5000 0.8130
vt 0.5000 0.8945
vt 0.1719 0.7368
vt 0.1255 0.6245
vt 0.2378 0.6709
vt 0.0791 0.7368
vt 0.0132 0.6709
vt 0.0132 0.5781
vt 0.0791 0.5122
vt 0.1719 0.5122
vt 0.2378 0.5781
vt 0.5000 0.8130
vt 0.5000 0.8945
vt 0.2510 0.8945
vt 0.2510 0.8130
vt 0.2510 0.8130
vt 0.2510 0.8945
vt 0.5000 0.8130
vt 0.5000 0.8945
vt 0.2510 0.8130
vt 0.2510 0.8945
vt 0.5000 0.8130
vt 0.5000 0.8945
vt 0.2510 0.8130
vt 0.2510 0.8945
vt 0.5000 0.8945
vt 0.5000 0.8130
vt 0.1719 0.7368
vt 0.1255 0.6245
vt 0.2378 0.6709
vt 0.0791 0.7368
vt 0.0132 0.6709
vt 0.0132 0.5781
vt 0.0791 0.5122
vt 0.1719 0.5122
vt 0.2378 0.5781
vt 0.0132 0.9209
vt 0.1255 0.8745
vt 0.0791 0.9868
vt 0.0132 0.8281
vt 0.0791 0.7622
vt 0.1719 0.7622
vt 0.2378 0.8281
vt 0.2378 0.9209
vt 0.1719 0.9868
vt 0.2510 0.8125
vt 0.2510 0.7310
vt 0.5000 0.7310
vt 0.5000 0.8125
vt 0.2510 0.8125
vt 0.2510 0.7310
vt 0.5000 0.7310
vt 0.5000 0.8125
vt 0.2510 0.8125
vt 0.2510 0.7310
vt 0.5000 0.7310
vt 0.5000 0.8125
vt 0.2510 0.8125
vt 0.2510 0.7310
vt 0.5000 0.7310
vt 0.5000 0.8125
vt 0.2510 0.8125
vt 0.2510 0.7310
vt 0.5000 0.7310
vt 0.5000 0.8125
vt 0.2510 0.8125
vt 0.2510 0.7310
vt 0.5000 0.7310
vt 0.5000 0.8125
vt 0.2510 0.8125
vt 0.2510 0.7310
vt 0.5000 0.7310
vt 0.5000 0.8125
vt 0.2510 0.8125
vt 0.2510 0.7310
vt 0.5000 0.7310
vt 0.5000 0.8125
vt 0.0132 0.9209
vt 0.1255 0.8745
vt 0.0791 0.9868
vt 0.0132 0.8281
vt 0.0791 0.7622
vt 0.1719 0.7622
vt 0.2378 0.8281
vt 0.2378 0.9209
vt 0.1719 0.9868
vt 0.2510 0.8125
vt 0.2510 0.7310
vt 0.5000 0.7310
vt 0.5000 0.8125
vt 0.2510 0.8125
vt 0.3755 0.7310
vt 0.5000 0.7310
vt 0.5000 0.8125
vt 0.2510 0.8125
vt 0.2510 0.7310
vt 0.5000 0.7310
vt 0.5000 0.8125
vt 0.2510 0.8125
vt 0.2510 0.7310
vt 0.5000 0.7310
vt 0.5000 0.8125
vt 0.2510 0.8125
vt 0.2510 0.7310
vt 0.5000 0.7310
vt 0.5000 0.8125
vt 0.2510 0.8125
vt 0.2510 0.7310
vt 0.5000 0.7310
vt 0.5000 0.8125
vt 0.2510 0.8125
vt 0.2510 0.7310
vt 0.5000 0.7310
vt 0.5000 0.8125
vt 0.2510 0.8125
vt 0.2510 0.7310
vt 0.5000 0.7310
vt 0.5000 0.8125
vt 0.5000 0.8130
vt 0.5000 0.8945
vt 0.2510 0.8945
vt 0.2510 0.8130
vt 0.5000 0.8130
vt 0.5000 0.8945
vt 0.2510 0.8945
vt 0.2510 0.8130
vt 0.1719 0.7368
vt 0.1255 0.6245
vt 0.2378 0.6709
vt 0.0791 0.7368
vt 0.0132 0.6709
vt 0.0132 0.5781
vt 0.0791 0.5122
vt 0.1719 0.5122
vt 0.2378 0.5781
vt 0.5000 0.8945
vt 0.5000 0.8130
vt 0.2510 0.8130
vt 0.2510 0.8945
vt 0.2510 0.8945
vt 0.2510 0.8130
vt 0.5000 0.8130
vt 0.5000 0.8945
vt 0.3755 0.8945
vt 0.2536 0.1056
vt 0.4821 0.2007
vt 0.4821 0.1057
vt 0.4821 0.2009
vt 0.9993 0.2825
vt 0.9193 0.4745
vt 0.9193 0.2825
vt 0.9993 0.2825
vt 0.4821 0.2009
vt 0.2536 0.1057
vt 0.4821 0.1057
vt 0.2608 0.7953
vt 0.4649 0.7948
vt 0.2708 0.8761
vt 0.9993 0.2825
vt 0.9193 0.4745
vt 0.9193 0.2825
vt 0.9193 0.4745
vt 0.9993 0.2825
vt 0.9193 0.2825
vt 0.2536 0.1057
vt 0.4821 0.2007
vt 0.4821 0.1057
vt 0.4821 0.2007
vt 0.4821 0.2009
vt 0.2536 0.1056
vt 0.4821 0.1057
vt 0.4821 0.2009
vt 0.9993 0.2825
vt 0.9193 0.4745
vt 0.9193 0.2825
vt 0.9993 0.2825
vt 0.9993 0.2825
vt 0.9193 0.4745
vt 0.9193 0.2825
vt 0.9993 0.2825
vt 0.9993 0.2825
vt 0.9193 0.4745
vt 0.9193 0.2825
vt 0.9993 0.2825
vt 0.9193 0.4745
vt 0.9993 0.2825
vt 0.9193 0.2825
vt 0.9993 0.2825
vt 0.9993 0.2825
vt 0.9193 0.4745
vt 0.9193 0.2825
vt 0.9993 0.2825
vt 0.9993 0.2825
vt 0.4649 0.7948
vt 0.2708 0.8761
vt 0.2608 0.7953
vt 0.2708 0.8761
vt 0.4649 0.7948
vt 0.9193 0.4745
vt 0.9993 0.2825
vt 0.9592 0.4856
vt 0.9193 0.4745
vt 0.9993 0.4970
vt 0.9193 0.4745
vt 0.9993 0.4970
vt 0.9993 0.4970
vt 0.9193 0.4745
vt 0.9993 0.4970
vt 0.9993 0.4970
vt 0.9193 0.4745
vt 0.9993 0.4970
vt 0.9993 0.4970
vt 0.9193 0.4745
vt 0.9993 0.4970
vt 0.9993 0.4970
vt 0.9193 0.4745
vt 0.9993 0.4970
vt 0.9993 0.4970
vt 0.2608 0.7953
vt 0.4649 0.7948
vt 0.2708 0.8761
vt 0.4649 0.7948
vt 0.2708 0.8761
vt 0.4649 0.7948
vt 0.2608 0.7953
vt 0.2708 0.8761
vt 0.4649 0.7948
vt 0.2708 0.8761
vt 0.9993 0.4970
vt 0.9993 0.4970
vt 0.4649 0.7948
vt 0.2708 0.8761
vt 0.9193 0.4745
vt 0.9993 0.4970
vt 0.9993 0.4970
vt 0.2608 0.7953
vt 0.2708 0.8761
vt 0.2708 0.8761
vt 0.2608 0.7953
vt 0.2708 0.8761
vt 0.2256 0.3820
vt 0.0748 0.2511
vt 0.0747 0.4966
vt 0.0747 0.4966
vt 0.2256 0.3820
vt 0.0748 0.2511
vt 0.2256 0.3820
vt 0.0748 0.2511
vt 0.0747 0.4966
vt 0.0748 0.2511
vt 0.2256 0.3820
vt 0.0747 0.4966
vt 0.0748 0.2511
vt 0.0747 0.4966
vt 0.2256 0.3820
vt 0.2256 0.3820
vt 0.0748 0.2511
vt 0.0747 0.4966
vt 0.2256 0.3820
vt 0.0747 0.4966
vt 0.0748 0.2511
vt 0.2256 0.3820
vt 0.0748 0.2511
vt 0.0747 0.4966
vt 0.0747 0.4966
vt 0.2256 0.3820
vt 0.0748 0.2511
vt 0.2256 0.3820
vt 0.0748 0.2511
vt 0.0747 0.4966
vt 0.0748 0.2511
vt 0.0747 0.4966
vt 0.2256 0.3820
vt 0.0747 0.4966
vt 0.2256 0.3820
vt 0.0748 0.2511
vt 0.2256 0.3820
vt 0.0748 0.2511
vt 0.0747 0.4966
vt 0.9993 0.4970
vt 0.9993 0.4970
vt 0.9993 0.4970
vt 0.9993 0.4970
vt 0.2708 0.8761
vt 0.2536 0.1056
vt 0.4821 0.2009
vt 0.9993 0.4970
vt 0.9993 0.4970
vt 0.2608 0.7953
vt 0.2708 0.8761
vt 0.2708 0.8761
vt 0.2708 0.8761
vt 0.2608 0.7953
vt 0.2708 0.8761
vt 0.9993 0.4970
vt 0.9993 0.4970
vt 0.9592 0.4856
vt 0.9993 0.4970
vt 0.2536 0.1057
vt 0.2536 0.1056
vt 0.2536 0.1057
vt 0.2510 0.7310
vn -0.4851 -0.7276 0.4851
vn -0.4851 -0.7276 -0.4851
vn 0.4851 -0.7276 -0.4851
vn -0.3580 0.0000 -0.9337
vn -0.7233 -0.3230 -0.6103
vn -0.7941 -0.1844 -0.5792
vn -0.6600 -0.2744 -0.6994
vn -0.6982 -0.6453 -0.3101
vn -0.6600 -0.6885 -0.3005
vn -0.7838 -0.6030 0.1485
vn -0.6600 -0.6994 0.2744
vn -0.7714 -0.2955 0.5636
vn -0.6600 -0.3005 0.6885
vn -0.3580 0.6602 -0.6602
vn -0.7492 0.2003 -0.6314
vn -0.7941 0.1844 0.5792
vn -0.6600 0.2744 0.6994
vn -0.3580 0.9337 0.0000
vn -0.6349 0.6934 -0.3407
vn -1.0000 0.0000 0.0000
vn 0.3580 -0.9337 0.0000
vn 0.6349 -0.6934 -0.3407
vn 0.7838 -0.6030 -0.1485
vn 0.6600 -0.6994 -0.2744
vn 0.3580 -0.0000 0.9337
vn 0.7233 -0.3230 0.6103
vn 0.7941 -0.1844 0.5792
vn 0.6600 -0.2744 0.6994
vn 0.7714 -0.2955 -0.5636
vn 0.6600 -0.3005 -0.6885
vn 0.3580 0.6602 0.6602
vn 0.7492 0.2003 0.6314
vn 0.7941 0.1844 -0.5792
vn 0.6600 0.2744 -0.6994
vn 0.3580 0.9337 -0.0000
vn 0.6349 0.6934 0.3407
vn 1.0000 0.0000 0.0000
vn -0.6602 0.6602 -0.3580
vn -0.1608 0.6561 -0.7373
vn -0.3101 0.6453 -0.6982
vn -0.3005 0.6885 -0.6600
vn -0.9337 -0.0000 -0.3580
vn -0.6103 0.3230 -0.7233
vn -0.6602 -0.6602 -0.3580
vn -0.6314 -0.2003 -0.7492
vn 0.0000 -0.9337 -0.3580
vn -0.3407 -0.6934 -0.6349
vn 0.6602 -0.6602 -0.3580
vn 0.1608 -0.6561 -0.7373
vn 0.9337 -0.0000 -0.3580
vn 0.6103 -0.3230 -0.7233
vn 0.1485 0.6030 -0.7838
vn 0.2744 0.6994 -0.6600
vn 0.0000 0.0000 -1.0000
vn 0.5422 -0.8402 0.0000
vn 0.0000 -1.0000 -0.0000
vn 0.6994 -0.6600 -0.2744
vn 0.3834 -0.8402 0.3834
vn 0.0000 -0.8402 0.5422
vn -0.3834 -0.8402 0.3834
vn -0.5422 -0.8402 -0.0000
vn -0.3834 -0.8402 -0.3834
vn 0.0000 -0.8402 -0.5422
vn -0.7392 -0.5763 -0.3485
vn -0.7072 -0.6617 -0.2491
vn -0.3485 -0.5763 0.7392
vn -0.2491 -0.6617 0.7072
vn -0.3167 -0.6488 -0.6919
vn 0.2607 -0.5893 0.7647
vn 0.2491 -0.6617 -0.7072
vn 0.7392 -0.5763 0.3485
vn -0.5422 0.8402 0.0000
vn -0.0000 1.0000 0.0000
vn -0.6994 0.6600 -0.2744
vn -0.3834 0.8402 0.3834
vn -0.0000 0.8416 0.5401
vn 0.3834 0.8402 0.3834
vn 0.5422 0.8402 0.0000
vn 0.3834 0.8402 -0.3834
vn 0.0000 0.8402 -0.5422
vn 0.7392 0.5763 -0.3485
vn 0.7072 0.6617 -0.2491
vn 0.6232 0.4693 0.6257
vn 0.2491 0.6617 0.7072
vn 0.3167 0.6488 -0.6919
vn -0.2607 0.5893 0.7647
vn -0.3167 0.6488 0.6919
vn -0.2491 0.6617 -0.7072
vn -0.7392 0.5763 0.3485
vn -0.0000 -0.9337 0.3580
vn 0.3407 -0.6934 0.6349
vn 0.1485 -0.6030 0.7838
vn 0.2744 -0.6994 0.6600
vn -0.9337 0.0000 0.3580
vn -0.6103 -0.3230 0.7233
vn -0.5792 -0.1844 0.7941
vn -0.6994 -0.2744 0.6600
vn 0.0000 0.5422 0.8402
vn 0.0000 -0.0000 1.0000
vn 0.2720 0.7003 0.6600
vn -0.3834 0.3834 0.8402
vn 0.5422 0.0000 0.8402
vn 0.5636 -0.2955 0.7714
vn -0.6314 0.2003 0.7492
vn 0.5792 0.1844 0.7941
vn -0.3407 0.6934 0.6349
vn -0.0147 0.8108 0.5851
vn -0.5543 -0.6209 0.5543
vn -0.5020 0.0000 0.8648
vn -0.5477 0.2820 0.7878
vn -0.3957 0.9098 -0.1255
vn -0.8025 0.5290 0.2758
vn -0.5157 0.7886 0.3350
vn 0.2372 -0.3186 0.9177
vn 0.6834 0.2565 0.6834
vn 0.7030 0.1076 0.7030
vn 0.2739 0.3255 0.9050
vn -0.2758 0.5290 0.8025
vn 0.5157 0.7886 -0.3350
vn 0.4275 0.9040 0.0000
vn 0.5543 -0.6209 -0.5543
vn 0.5020 -0.0000 -0.8648
vn 0.5477 0.2820 -0.7878
vn -0.2372 -0.3186 -0.9177
vn -0.6834 0.2565 -0.6834
vn -0.7878 0.2820 -0.5477
vn 0.1255 0.9098 -0.3957
vn -0.2758 0.5290 -0.8025
vn -0.3350 0.7886 -0.5157
vn 0.2790 -0.6435 -0.7128
vn 0.2758 -0.5290 -0.8025
vn -0.2013 -0.5440 -0.8146
vn -0.7296 -0.6550 -0.1968
vn -0.8025 -0.5290 -0.2758
vn -0.8146 -0.5440 0.2013
vn -0.2790 -0.6435 0.7128
vn -0.0000 -0.4275 0.9040
vn -0.2739 -0.3255 0.9050
vn 0.3957 -0.9098 -0.1255
vn 0.8025 -0.5290 0.2758
vn 0.7817 -0.5329 -0.3240
vn 0.3957 0.9098 0.1255
vn -0.1250 0.9093 0.3969
s off
f 133/1/1 117/2/1 131/3/1
f 129/4/2 122/5/2 128/6/2
f 137/7/3 126/8/3 106/9/3
s 1
f 1/10/4 4/11/5 3/12/6
f 2/13/7 1/10/4 3/12/6
f 2/13/7 3/12/6 7/14/8
f 6/15/9 2/13/7 7/14/8
f 6/15/9 7/14/8 8/16/10
f 17/17/11 6/15/9 8/16/10
f 17/17/11 8/16/10 5/18/12
f 9/19/13 17/17/11 5/18/12
f 10/20/14 11/21/15 4/11/5
f 1/10/4 10/20/14 4/11/5
f 9/19/13 5/18/12 13/22/16
f 16/23/17 9/19/13 13/22/16
f 14/24/18 12/25/19 11/21/15
f 10/20/14 14/24/18 11/21/15
f 16/23/17 13/22/16 12/25/19
f 14/24/18 16/23/17 12/25/19
f 14/26/18 15/27/20 16/28/17
f 10/29/14 15/27/20 14/26/18
f 1/30/4 15/27/20 10/29/14
f 2/31/7 15/27/20 1/30/4
f 6/32/9 15/27/20 2/31/7
f 17/33/11 15/27/20 6/32/9
f 9/34/13 15/27/20 17/33/11
f 16/28/17 15/27/20 9/34/13
f 24/35/21 19/36/22 20/37/23
f 34/38/24 24/35/21 20/37/23
f 26/39/25 21/40/26 23/41/27
f 22/42/28 26/39/25 23/41/27
f 22/42/28 23/41/27 19/36/22
f 24/35/21 22/42/28 19/36/22
f 34/38/24 20/37/23 18/43/29
f 27/44/30 34/38/24 18/43/29
f 30/45/31 25/46/32 21/40/26
f 26/39/25 30/45/31 21/40/26
f 27/44/30 18/43/29 28/47/33
f 29/48/34 27/44/30 28/47/33
f 31/49/35 32/50/36 25/46/32
f 30/45/31 31/49/35 25/46/32
f 29/48/34 28/47/33 32/50/36
f 31/49/35 29/48/34 32/50/36
f 31/51/35 33/52/37 29/53/34
f 30/54/31 33/52/37 31/51/35
f 26/55/25 33/52/37 30/54/31
f 22/56/28 33/52/37 26/55/25
f 24/57/21 33/52/37 22/56/28
f 34/58/24 33/52/37 24/57/21
f 27/59/30 33/52/37 34/58/24
f 29/53/34 33/52/37 27/59/30
f 35/60/38 36/61/39 51/62/40
f 37/63/41 35/60/38 51/62/40
f 50/64/42 38/65/43 36/61/39
f 35/60/38 50/64/42 36/61/39
f 41/66/44 40/67/45 38/65/43
f 50/64/42 41/66/44 38/65/43
f 43/68/46 39/69/47 40/67/45
f 41/66/44 43/68/46 40/67/45
f 45/70/48 42/71/49 39/69/47
f 43/68/46 45/70/48 39/69/47
f 48/72/50 44/73/51 42/71/49
f 45/70/48 48/72/50 42/71/49
f 37/63/41 51/62/40 47/74/52
f 46/75/53 37/63/41 47/74/52
f 46/75/53 47/74/52 44/73/51
f 48/72/50 46/75/53 44/73/51
f 37/76/41 49/77/54 35/78/38
f 46/79/53 49/77/54 37/76/41
f 48/80/50 49/77/54 46/79/53
f 45/81/48 49/77/54 48/80/50
f 43/82/46 49/77/54 45/81/48
f 41/83/44 49/77/54 43/82/46
f 50/84/42 49/77/54 41/83/44
f 35/78/38 49/77/54 50/84/42
f 66/85/55 55/86/56 68/87/57
f 56/88/58 55/86/56 66/85/55
f 57/89/59 55/86/56 56/88/58
f 60/90/60 55/86/56 57/89/59
f 62/91/61 55/86/56 60/90/60
f 58/92/62 55/86/56 62/91/61
f 64/93/63 55/86/56 58/92/62
f 68/87/57 55/86/56 64/93/63
f 62/94/61 52/95/64 63/96/65
f 58/97/62 62/94/61 63/96/65
f 57/98/59 59/99/66 61/100/67
f 60/101/60 57/98/59 61/100/67
f 60/102/60 61/103/67 52/104/64
f 62/105/61 60/102/60 52/104/64
f 58/106/62 63/107/65 53/108/68
f 64/109/63 58/106/62 53/108/68
f 56/110/58 67/111/69 59/112/66
f 57/113/59 56/110/58 59/112/66
f 64/114/63 53/115/68 65/116/70
f 68/117/57 64/114/63 65/116/70
f 66/118/55 54/119/71 67/120/69
f 56/121/58 66/118/55 67/120/69
f 68/122/57 65/123/70 54/124/71
f 66/125/55 68/122/57 54/124/71
f 84/126/72 70/127/73 85/128/74
f 78/129/75 70/127/73 84/126/72
f 80/130/76 70/127/73 78/129/75
f 73/131/77 70/127/73 80/130/76
f 71/132/78 70/127/73 73/131/77
f 76/133/79 70/127/73 71/132/78
f 81/134/80 70/127/73 76/133/79
f 85/128/74 70/127/73 81/134/80
f 71/135/78 75/136/81 77/137/82
f 76/138/79 71/135/78 77/137/82
f 80/139/76 103/140/83 74/141/84
f 73/142/77 80/139/76 74/141/84
f 73/143/77 74/144/84 75/145/81
f 71/146/78 73/143/77 75/145/81
f 76/147/79 77/148/82 82/149/85
f 81/150/80 76/147/79 82/149/85
f 78/151/75 79/152/86 72/153/87
f 80/154/76 78/151/75 72/153/87
f 81/155/80 82/156/85 83/157/88
f 85/158/74 81/155/80 83/157/88
f 84/159/72 69/160/89 79/161/86
f 78/162/75 84/159/72 79/161/86
f 85/163/74 83/164/88 69/165/89
f 84/166/72 85/163/74 69/165/89
f 86/167/90 102/168/91 95/169/92
f 94/170/93 86/167/90 95/169/92
f 92/171/94 87/172/95 88/173/96
f 93/174/97 92/171/94 88/173/96
f 89/175/98 90/176/99 91/177/100
f 96/178/101 90/176/99 89/175/98
f 92/179/94 90/176/99 96/178/101
f 93/180/97 90/176/99 92/179/94
f 86/181/90 90/176/99 93/180/97
f 94/182/93 90/176/99 86/181/90
f 98/183/102 90/176/99 94/182/93
f 91/177/100 90/176/99 98/183/102
f 93/174/97 88/173/96 102/168/91
f 86/167/90 93/174/97 102/168/91
f 94/170/93 95/169/92 101/184/103
f 98/185/102 94/170/93 101/184/103
f 96/186/101 97/187/104 87/172/95
f 92/171/94 96/186/101 87/172/95
f 98/185/102 101/184/103 100/188/105
f 91/189/100 98/185/102 100/188/105
f 89/190/98 99/191/106 97/187/104
f 96/186/101 89/190/98 97/187/104
f 91/189/100 104/192/107 99/191/106
f 89/190/98 91/189/100 99/191/106
f 87/193/95 118/194/108 119/195/109
f 117/196/110 87/193/95 119/195/109
f 116/197/111 69/198/89 115/199/112
f 69/198/89 114/200/113 115/199/112
f 113/201/114 101/202/103 112/203/115
f 21/204/26 140/205/116 23/206/27
f 111/207/117 99/208/106 110/209/118
f 75/210/81 105/211/119 109/212/120
f 44/213/51 108/214/121 107/215/122
f 106/216/123 44/213/51 107/215/122
f 120/217/124 38/218/43 121/219/125
f 38/218/43 122/220/126 121/219/125
f 123/221/127 82/222/85 124/223/128
f 82/222/85 125/224/129 124/223/128
f 126/225/130 53/226/68 127/227/131
f 53/226/68 128/228/132 127/227/131
f 129/229/133 52/230/64 130/231/134
f 52/230/64 131/232/135 130/231/134
f 102/233/91 133/234/136 132/235/137
f 134/236/138 102/233/91 132/235/137
f 135/237/139 54/238/71 136/239/140
f 54/238/71 137/240/141 136/239/140
f 138/241/142 75/210/81 109/212/120
f 117/242/110 88/243/96 87/244/95
f 87/244/95 97/245/104 118/246/108
f 72/247/87 110/209/118 139/248/143
f 139/248/143 99/208/106 104/249/107
f 138/241/142 32/250/36 28/251/33
f 19/252/22 137/240/141 20/253/23
f 135/237/139 19/252/22 23/254/27
f 134/236/138 59/255/66 67/256/69
f 59/255/66 133/234/136 61/257/67
f 7/258/8 131/232/135 8/259/10
f 129/229/133 7/258/8 3/260/6
f 39/261/47 128/228/132 40/262/45
f 126/225/130 39/261/47 42/263/49
f 51/264/40 125/224/129 47/265/52
f 123/221/127 51/264/40 36/266/39
f 4/267/5 122/268/126 3/269/6
f 120/270/124 4/267/5 11/271/15
f 106/272/123 18/273/29 20/274/23
f 18/273/29 108/275/121 28/276/33
f 32/250/36 105/211/119 25/277/32
f 111/207/117 72/247/87 79/278/86
f 113/279/114 21/204/26 25/280/32
f 12/281/19 114/200/113 11/282/15
f 116/197/111 12/281/19 13/283/16
f 117/242/110 5/284/12 8/285/10
f 5/284/12 118/246/108 13/286/16
f 140/205/116 101/287/103 95/288/92
f 95/289/92 134/290/138 140/291/116
f 67/292/69 135/293/139 134/290/138
f 140/291/116 135/293/139 23/294/27
f 134/290/138 135/293/139 140/291/116
f 117/2/110 133/1/136 88/295/96
f 61/296/67 133/1/136 131/3/135
f 117/2/110 8/297/10 131/3/135
f 122/5/126 129/4/133 3/298/6
f 122/5/126 40/299/45 128/6/132
f 128/6/132 63/300/65 129/4/133
f 65/301/70 126/8/130 137/7/141
f 106/9/123 20/302/23 137/7/141
f 42/303/49 106/9/123 126/8/130
f 114/304/113 120/305/124 11/306/15
f 36/307/39 120/305/124 123/308/127
f 83/309/88 123/308/127 114/304/113
f 120/305/124 114/304/113 123/308/127
f 97/310/104 111/311/117 118/312/108
f 79/313/86 116/314/111 111/311/117
f 116/314/111 13/315/16 118/312/108
f 111/311/117 116/314/111 118/312/108
f 105/316/119 113/317/114 25/318/32
f 74/319/84 139/320/143 105/316/119
f 100/321/105 113/317/114 139/320/143
f 113/317/114 105/316/119 139/320/143
f 108/322/121 138/323/142 28/324/33
f 47/325/52 125/326/129 108/322/121
f 77/327/82 138/323/142 125/326/129
f 138/323/142 108/322/121 125/326/129
f 102/233/91 88/328/96 133/234/136
f 134/236/138 95/329/92 102/233/91
f 134/236/138 132/235/137 59/255/66
f 59/255/66 132/235/137 133/234/136
f 129/229/133 63/330/65 52/230/64
f 52/230/64 61/257/67 131/232/135
f 7/258/8 130/231/134 131/232/135
f 129/229/133 130/231/134 7/258/8
f 116/197/111 79/278/86 69/198/89
f 69/198/89 83/331/88 114/200/113
f 113/279/114 100/332/105 101/287/103
f 21/333/26 112/203/115 140/334/116
f 111/207/117 97/335/104 99/208/106
f 75/210/81 74/336/84 105/211/119
f 44/337/51 47/338/52 108/275/121
f 106/272/123 42/339/49 44/337/51
f 120/270/124 36/340/39 38/341/43
f 38/341/43 40/342/45 122/268/126
f 123/221/127 83/331/88 82/222/85
f 82/222/85 77/343/82 125/224/129
f 126/225/130 65/344/70 53/226/68
f 53/226/68 63/330/65 128/228/132
f 135/237/139 67/256/69 54/238/71
f 54/238/71 65/344/70 137/240/141
f 138/241/142 77/343/82 75/210/81
f 139/248/143 74/336/84 103/345/83
f 103/345/83 72/247/87 139/248/143
f 99/208/106 139/248/143 110/209/118
f 100/346/105 139/248/143 104/249/107
f 138/241/142 109/212/120 32/250/36
f 19/252/22 136/239/140 137/240/141
f 135/237/139 136/239/140 19/252/22
f 39/261/47 127/227/131 128/228/132
f 126/225/130 127/227/131 39/261/47
f 51/264/40 124/223/128 125/224/129
f 123/221/127 124/223/128 51/264/40
f 4/347/5 121/219/125 122/220/126
f 120/217/124 121/219/125 4/347/5
f 106/216/123 107/215/122 18/348/29
f 18/348/29 107/215/122 108/214/121
f 32/250/36 109/212/120 105/211/119
f 111/207/117 110/209/118 72/247/87
f 113/201/114 112/203/115 21/333/26
f 12/281/19 115/199/112 114/200/113
f 116/197/111 115/199/112 12/281/19
f 117/196/110 119/195/109 5/349/12
f 5/349/12 119/195/109 118/194/108
f 140/334/116 112/203/115 101/202/103
f 80/139/76 72/350/87 103/140/83
f 91/189/100 100/188/105 104/192/107
